<svg xmlns="http://www.w3.org/2000/svg" id="icon-name-here" width="256" height="256" fill="none" viewBox="0 0 256 256"><style/><rect width="256" height="256" fill="#242938" rx="60"/><g><g><path fill="#BB6F5D" d="M34 76.7227C34 75.0658 32.6569 73.7227 31 73.7227C23.268 73.7227 17 80.0527 17 87.8613V93.4157C17 98.1562 20.8056 102 25.5 102C30.1944 102 34 98.1562 34 93.4157V76.7227Z" transform="translate(72,24) scale(2)"/><path fill="#72470D" d="M0 63.6831C0 66.9968 2.68629 69.6831 6 69.6831H45C48.3137 69.6831 51 66.9968 51 63.6831V35.3465L25 19.693C14.6872 11.986 0 19.3454 0 32.2198V63.6831Z" transform="translate(72,24) scale(2)"/><path fill="#F7B155" d="M51 27.5C51 13.4167 39.5833 2 25.5 2C11.4167 2 0 13.4167 0 27.5V66.8136C0 69.6779 2.32205 72 5.18644 72C8.05083 72 10.3729 69.6779 10.3729 66.8136V52.9703C10.3729 50.2253 12.5982 48 15.3432 48C18.0883 48 20.3136 50.2253 20.3136 52.9703V60.4306C20.3136 63.295 22.6356 65.617 25.5 65.617H26.0375C28.605 65.617 30.6864 63.5356 30.6864 60.9681V60.6101C30.6864 58.2403 32.6076 56.3191 34.9774 56.3191H35.478C37.6086 56.3191 39.5919 57.4065 40.7377 59.2028C41.3506 60.1637 42.3679 60.7929 43.5014 60.9123L44.5189 61.0195C47.9829 61.3843 51 58.6683 51 55.1852V27.5Z" transform="translate(72,24) scale(2)"/></g></g></svg>